<svg width="542" height="73" viewBox="0 0 542 73" fill="none" xmlns="http://www.w3.org/2000/svg">
<path d="M2.672 51.6867C1.472 51.6867 0.872 51.3987 0.872 50.8227C0.872 50.4867 1.04 50.2227 1.376 50.0307C1.712 49.7907 2.24 49.5987 2.96 49.4547C4.784 49.1187 6.032 48.5907 6.704 47.8707C7.376 47.1507 7.712 45.9507 7.712 44.2707V13.2387C7.712 11.1747 7.4 9.66274 6.776 8.70274C6.2 7.69474 5.072 7.02274 3.392 6.68674C1.952 6.39874 1.232 5.91874 1.232 5.24674C1.232 4.95874 1.4 4.74274 1.736 4.59874C2.12 4.40674 2.576 4.31074 3.104 4.31074C4.784 4.31074 6.824 4.35874 9.224 4.45474C11.624 4.55074 13.52 4.59874 14.912 4.59874H25.28C26.768 4.59874 28.472 4.45474 30.392 4.16674C31.832 3.97474 32.744 3.87874 33.128 3.87874C33.464 3.87874 33.776 3.95074 34.064 4.09474C34.4 4.23874 34.592 4.45474 34.64 4.74274C34.736 6.08674 34.808 7.52674 34.856 9.06274C34.952 10.5507 35 11.8227 35 12.8787C35 13.3107 34.928 13.6707 34.784 13.9587C34.64 14.2467 34.472 14.3907 34.28 14.3907C33.992 14.3907 33.728 14.2947 33.488 14.1027C33.248 13.9107 33.104 13.6707 33.056 13.3827C32.528 11.4627 31.88 10.0467 31.112 9.13474C29.864 7.88674 28.208 7.26274 26.144 7.26274H18.296C17.24 7.26274 16.496 7.57474 16.064 8.19874C15.632 8.82274 15.392 9.68674 15.344 10.7907V17.5587V24.4707C15.344 25.5267 15.704 26.0547 16.424 26.0547L21.104 25.9827C21.92 25.9347 22.976 25.9107 24.272 25.9107C26.24 25.9107 27.704 24.8307 28.664 22.6707C28.76 22.4307 28.952 22.1667 29.24 21.8787C29.528 21.5907 29.768 21.4467 29.96 21.4467C30.2 21.4467 30.416 21.5667 30.608 21.8067C30.848 22.0467 30.944 22.3587 30.896 22.7427C30.752 24.5187 30.68 25.9827 30.68 27.1347C30.68 28.2867 30.752 29.9187 30.896 32.0307C30.896 33.0387 30.68 33.5427 30.248 33.5427C29.816 33.5427 29.456 33.3747 29.168 33.0387C28.88 32.6547 28.664 32.2467 28.52 31.8147C27.896 29.7507 26.744 28.7187 25.064 28.7187L21.536 28.6467C19.52 28.6467 18.008 28.6707 17 28.7187C16.52 28.7667 16.112 28.9347 15.776 29.2227C15.488 29.5107 15.344 29.9427 15.344 30.5187C15.344 36.5667 15.416 41.1267 15.56 44.1987C15.608 45.7827 15.992 46.9827 16.712 47.7987C17.432 48.5667 18.704 49.1187 20.528 49.4547C21.248 49.5987 21.776 49.7907 22.112 50.0307C22.448 50.2227 22.616 50.4867 22.616 50.8227C22.616 51.3987 22.016 51.6867 20.816 51.6867C19.904 51.6867 18.968 51.6387 18.008 51.5427C17.048 51.4947 16.352 51.4707 15.92 51.4707C14.72 51.3267 13.496 51.2547 12.248 51.2547C10.712 51.2547 9.224 51.3267 7.784 51.4707C7.304 51.4707 6.56 51.4947 5.552 51.5427C4.544 51.6387 3.584 51.6867 2.672 51.6867ZM51.4981 52.4067C48.7621 52.4067 46.2661 51.7827 44.0101 50.5347C41.8021 49.2867 40.0501 47.5347 38.7541 45.2787C37.4581 43.0227 36.8101 40.5027 36.8101 37.7187C36.8101 34.9347 37.5301 32.2707 38.9701 29.7267C40.4101 27.1347 42.3781 25.0467 44.8741 23.4627C47.3701 21.8787 50.0821 21.0867 53.0101 21.0867C55.7941 21.0867 58.3381 21.7587 60.6421 23.1027C62.9941 24.4467 64.8421 26.2467 66.1861 28.5027C67.5301 30.7587 68.2021 33.1827 68.2021 35.7747C68.2021 38.7507 67.5541 41.5107 66.2581 44.0547C65.0101 46.5987 63.1141 48.6387 60.5701 50.1747C58.0741 51.6627 55.0501 52.4067 51.4981 52.4067ZM53.0101 49.8867C55.9861 49.8867 58.0981 48.7587 59.3461 46.5027C60.3541 44.6307 60.8581 41.6307 60.8581 37.5027C60.8581 35.1027 60.4741 32.8467 59.7061 30.7347C58.9381 28.6227 57.8581 26.9187 56.4661 25.6227C55.1221 24.3267 53.5621 23.6787 51.7861 23.6787C50.6341 23.6787 49.6261 23.8707 48.7621 24.2547C47.8981 24.5907 47.1061 25.1907 46.3861 26.0547C45.5701 27.1107 44.9941 28.4787 44.6581 30.1587C44.3221 31.7907 44.1541 33.7587 44.1541 36.0627C44.1541 38.4147 44.5381 40.6467 45.3061 42.7587C46.0741 44.8707 47.1301 46.5987 48.4741 47.9427C49.8661 49.2387 51.3781 49.8867 53.0101 49.8867ZM73.7495 51.6147C72.7895 51.6147 72.3095 51.3267 72.3095 50.7507C72.3095 50.4147 72.4295 50.1507 72.6695 49.9587C72.9575 49.7667 73.3895 49.5987 73.9655 49.4547C74.9255 49.2627 75.6215 48.9507 76.0535 48.5187C76.4855 48.0387 76.7015 47.4387 76.7015 46.7187V30.8787C76.7015 29.5827 76.5095 28.5507 76.1255 27.7827C75.7415 26.9667 75.0455 26.4387 74.0375 26.1987C73.8455 26.1507 73.6535 26.0307 73.4615 25.8387C73.3175 25.6467 73.2455 25.4067 73.2455 25.1187C73.2455 24.6387 73.4855 24.3027 73.9655 24.1107C75.2135 23.7747 76.5815 23.2707 78.0695 22.5987C79.6055 21.9267 80.9255 21.2787 82.0295 20.6547C82.6535 20.2707 83.0855 20.0787 83.3255 20.0787C83.6615 20.0787 83.8295 20.2707 83.8295 20.6547L83.6135 26.1987C83.6135 26.3907 83.6615 26.4867 83.7575 26.4867C85.0055 24.9027 86.3735 23.6067 87.8615 22.5987C89.3975 21.5907 90.8855 21.0867 92.3255 21.0867C93.5735 21.0867 94.5335 21.3507 95.2055 21.8787C95.8775 22.3587 96.2135 23.0067 96.2135 23.8227C96.2135 24.7347 95.8535 25.6947 95.1335 26.7027C94.4615 27.7107 93.7175 28.2147 92.9015 28.2147C92.5175 28.2147 91.7495 27.9507 90.5975 27.4227C90.4055 27.3267 90.0455 27.1827 89.5175 26.9907C89.0375 26.7507 88.6055 26.6307 88.2215 26.6307C86.8295 26.6307 85.6775 27.1107 84.7655 28.0707C83.8535 29.0307 83.3975 30.6627 83.3975 32.9667V46.5027C83.3975 47.2227 83.6855 47.7987 84.2615 48.2307C84.8375 48.6627 85.7975 49.0947 87.1415 49.5267C87.7175 49.6707 88.1255 49.8387 88.3655 50.0307C88.6535 50.2227 88.7975 50.4627 88.7975 50.7507C88.7975 51.3267 88.3415 51.6147 87.4295 51.6147C86.0375 51.6147 84.7655 51.5427 83.6135 51.3987C82.1735 51.3027 81.0695 51.2547 80.3015 51.2547C79.5335 51.2547 78.5255 51.3027 77.2775 51.3987C76.2695 51.5427 75.0935 51.6147 73.7495 51.6147ZM110.923 52.4067C108.283 52.4067 106.243 51.6627 104.803 50.1747C103.411 48.6867 102.715 46.5027 102.715 43.6227V26.9187C102.715 26.5347 102.547 26.2707 102.211 26.1267C101.875 25.9347 101.275 25.8387 100.411 25.8387H99.8354C99.5474 25.8387 99.3074 25.6467 99.1154 25.2627C98.9234 24.8787 98.8274 24.4707 98.8274 24.0387C98.8274 23.8947 98.8754 23.7507 98.9714 23.6067C99.1154 23.4627 99.2354 23.3667 99.3314 23.3187C100.675 22.5507 102.067 21.5667 103.507 20.3667C104.947 19.1667 106.171 18.0387 107.179 16.9827C107.227 16.9347 107.395 16.7667 107.683 16.4787C107.971 16.1907 108.283 16.0467 108.619 16.0467C109.339 16.0467 109.675 16.4067 109.627 17.1267L109.195 20.6547V20.9427C109.195 21.3747 109.339 21.6867 109.627 21.8787C109.915 22.0227 110.347 22.0947 110.923 22.0947H119.275C119.419 22.0947 119.563 22.2627 119.707 22.5987C119.851 22.9347 119.923 23.2707 119.923 23.6067C119.923 24.1347 119.851 24.6387 119.707 25.1187C119.563 25.5987 119.395 25.8387 119.203 25.8387H112.219C111.019 25.8387 110.227 25.9587 109.843 26.1987C109.507 26.4387 109.339 26.9907 109.339 27.8547V41.8227C109.339 43.8387 109.747 45.3987 110.563 46.5027C111.379 47.5587 112.531 48.0867 114.019 48.0867C115.267 48.0867 116.251 47.9907 116.971 47.7987C117.739 47.6067 118.459 47.2947 119.131 46.8627L119.491 46.7187C119.875 46.7187 120.067 47.1027 120.067 47.8707C120.067 48.2067 119.587 48.7587 118.627 49.5267C117.715 50.2467 116.563 50.8947 115.171 51.4707C113.779 52.0947 112.363 52.4067 110.923 52.4067ZM123.377 51.6147C122.417 51.6147 121.937 51.3267 121.937 50.7507C121.937 50.4627 122.057 50.2227 122.297 50.0307C122.537 49.8387 122.969 49.6467 123.593 49.4547C124.553 49.1667 125.273 48.8547 125.753 48.5187C126.281 48.1347 126.545 47.4867 126.545 46.5747V11.0787C126.545 9.63874 126.329 8.46274 125.897 7.55074C125.465 6.63874 124.673 6.08674 123.521 5.89474C123.089 5.79874 122.873 5.43874 122.873 4.81474C122.873 4.33474 123.065 4.02274 123.449 3.87874C124.649 3.59074 126.113 3.13474 127.841 2.51074C129.617 1.88674 131.177 1.31074 132.521 0.782742C132.809 0.68674 133.025 0.63874 133.169 0.63874C133.553 0.63874 133.745 0.85474 133.745 1.28674C133.745 1.52674 133.649 2.22274 133.457 3.37474C133.265 4.47874 133.169 6.47074 133.169 9.35074V23.3187C133.169 24.4227 133.313 25.2387 133.601 25.7667C135.281 24.4707 136.985 23.3907 138.713 22.5267C140.489 21.6147 142.385 21.1587 144.401 21.1587C146.849 21.1587 148.865 22.0947 150.449 23.9667C152.081 25.7907 152.897 28.1667 152.897 31.0947V46.4307C152.897 47.2947 153.137 47.9427 153.617 48.3747C154.145 48.8067 154.865 49.1667 155.777 49.4547C156.353 49.6467 156.761 49.8387 157.001 50.0307C157.241 50.2227 157.361 50.4627 157.361 50.7507C157.361 51.3267 156.857 51.6147 155.849 51.6147C154.505 51.6147 153.401 51.5427 152.537 51.3987C151.481 51.3027 150.521 51.2547 149.657 51.2547C148.793 51.2547 147.833 51.3027 146.777 51.3987C146.009 51.5427 144.929 51.6147 143.537 51.6147C142.529 51.6147 142.025 51.3267 142.025 50.7507C142.025 50.4147 142.145 50.1747 142.385 50.0307C142.625 49.8387 143.033 49.6467 143.609 49.4547C144.473 49.1667 145.145 48.8067 145.625 48.3747C146.105 47.9427 146.345 47.2707 146.345 46.3587V31.8147C146.345 30.1827 145.697 28.7667 144.401 27.5667C143.153 26.3187 141.809 25.6947 140.369 25.6947C139.409 25.6947 138.401 25.8387 137.345 26.1267C136.289 26.3667 135.425 26.7507 134.753 27.2787C134.129 27.7587 133.697 28.2867 133.457 28.8627C133.265 29.4387 133.169 30.3267 133.169 31.5267V46.5747C133.217 47.4387 133.457 48.0627 133.889 48.4467C134.321 48.8307 134.969 49.1667 135.833 49.4547C136.889 49.7907 137.417 50.2227 137.417 50.7507C137.417 51.3267 136.937 51.6147 135.977 51.6147C134.633 51.6147 133.529 51.5427 132.665 51.3987C131.513 51.3027 130.553 51.2547 129.785 51.2547C128.969 51.2547 127.985 51.3027 126.833 51.3987C125.825 51.5427 124.673 51.6147 123.377 51.6147ZM162.203 51.6147C161.243 51.6147 160.763 51.3267 160.763 50.7507C160.763 50.4147 160.883 50.1507 161.123 49.9587C161.411 49.7667 161.843 49.5987 162.419 49.4547C163.379 49.2627 164.075 48.9507 164.507 48.5187C164.939 48.0387 165.155 47.4387 165.155 46.7187V30.8787C165.155 29.5827 164.963 28.5507 164.579 27.7827C164.195 26.9667 163.499 26.4387 162.491 26.1987C162.299 26.1507 162.107 26.0307 161.915 25.8387C161.771 25.6467 161.699 25.4067 161.699 25.1187C161.699 24.6387 161.939 24.3027 162.419 24.1107C163.667 23.7747 165.035 23.2707 166.523 22.5987C168.059 21.9267 169.379 21.2787 170.483 20.6547C171.107 20.2707 171.539 20.0787 171.779 20.0787C172.115 20.0787 172.283 20.2707 172.283 20.6547L172.067 26.1987C172.067 26.3907 172.115 26.4867 172.211 26.4867C173.459 24.9027 174.827 23.6067 176.315 22.5987C177.851 21.5907 179.339 21.0867 180.779 21.0867C182.027 21.0867 182.987 21.3507 183.659 21.8787C184.331 22.3587 184.667 23.0067 184.667 23.8227C184.667 24.7347 184.307 25.6947 183.587 26.7027C182.915 27.7107 182.171 28.2147 181.355 28.2147C180.971 28.2147 180.203 27.9507 179.051 27.4227C178.859 27.3267 178.499 27.1827 177.971 26.9907C177.491 26.7507 177.059 26.6307 176.675 26.6307C175.283 26.6307 174.131 27.1107 173.219 28.0707C172.307 29.0307 171.851 30.6627 171.851 32.9667V46.5027C171.851 47.2227 172.139 47.7987 172.715 48.2307C173.291 48.6627 174.251 49.0947 175.595 49.5267C176.171 49.6707 176.579 49.8387 176.819 50.0307C177.107 50.2227 177.251 50.4627 177.251 50.7507C177.251 51.3267 176.795 51.6147 175.883 51.6147C174.491 51.6147 173.219 51.5427 172.067 51.3987C170.627 51.3027 169.523 51.2547 168.755 51.2547C167.987 51.2547 166.979 51.3027 165.731 51.3987C164.723 51.5427 163.547 51.6147 162.203 51.6147ZM188.001 51.6147C187.089 51.6147 186.633 51.3267 186.633 50.7507C186.633 50.2227 187.137 49.8147 188.145 49.5267C189.345 49.1907 190.185 48.8547 190.665 48.5187C191.145 48.1347 191.385 47.5587 191.385 46.7907V31.2387C191.385 28.1667 190.305 26.4627 188.145 26.1267C187.665 26.0787 187.425 25.7187 187.425 25.0467C187.425 24.4707 187.641 24.1587 188.073 24.1107C191.193 23.4387 194.145 22.1667 196.929 20.2947C197.505 19.9587 197.889 19.7907 198.081 19.7907C198.465 19.7907 198.657 19.9827 198.657 20.3667C198.657 20.6547 198.561 21.7587 198.369 23.6787C198.081 26.5587 197.937 28.7907 197.937 30.3747V46.7907C197.937 47.5107 198.177 48.0867 198.657 48.5187C199.185 48.9027 200.025 49.2387 201.177 49.5267C202.185 49.8147 202.689 50.2227 202.689 50.7507C202.689 51.3267 202.257 51.6147 201.393 51.6147C200.145 51.6147 198.969 51.5427 197.865 51.3987C196.521 51.3027 195.441 51.2547 194.625 51.2547C193.809 51.2547 192.777 51.3027 191.529 51.3987C190.521 51.5427 189.345 51.6147 188.001 51.6147ZM194.481 14.8227C193.281 14.8227 192.249 14.4147 191.385 13.5987C190.569 12.7347 190.161 11.7027 190.161 10.5027C190.161 9.25474 190.569 8.22274 191.385 7.40674C192.249 6.54274 193.281 6.11074 194.481 6.11074C195.729 6.11074 196.785 6.54274 197.649 7.40674C198.513 8.22274 198.945 9.25474 198.945 10.5027C198.945 11.7027 198.513 12.7347 197.649 13.5987C196.785 14.4147 195.729 14.8227 194.481 14.8227ZM236.291 22.8867C236.579 22.8867 236.819 23.0067 237.011 23.2467C237.203 23.4867 237.299 23.7987 237.299 24.1827C237.299 24.4227 237.227 24.7347 237.083 25.1187C236.939 25.4547 236.747 25.7427 236.507 25.9827C236.219 26.2707 235.979 26.4147 235.787 26.4147H233.843C232.595 26.4147 231.851 26.6067 231.611 26.9907C231.323 27.5667 231.179 28.6707 231.179 30.3027C231.179 32.7507 230.603 35.0307 229.451 37.1427C228.347 39.2067 226.835 40.8627 224.915 42.1107C223.043 43.3587 221.003 43.9827 218.795 43.9827C217.451 43.9827 216.059 43.7187 214.619 43.1907C213.899 43.5747 213.299 44.0307 212.819 44.5587C212.387 45.0387 212.171 45.4707 212.171 45.8547C212.171 46.7667 212.939 47.4867 214.475 48.0147C216.011 48.5427 218.459 48.9267 221.819 49.1667C226.523 49.4547 229.979 50.1987 232.187 51.3987C234.395 52.5987 235.499 54.3027 235.499 56.5107C235.499 59.0067 234.659 61.4787 232.979 63.9267C231.299 66.3747 229.115 68.3667 226.427 69.9027C223.787 71.4867 221.123 72.2787 218.435 72.2787C214.163 72.2787 210.779 71.5107 208.283 69.9747C205.835 68.4867 204.611 66.4227 204.611 63.7827C204.611 62.4387 204.803 61.3347 205.187 60.4707C205.571 59.6547 206.219 58.8627 207.131 58.0947L212.531 53.9187C210.467 53.3907 208.979 52.6707 208.067 51.7587C207.155 50.8467 206.699 49.6707 206.699 48.2307C206.699 47.2227 207.275 46.3107 208.427 45.4947C209.435 44.7267 210.275 44.0787 210.947 43.5507C211.619 43.0227 212.099 42.5667 212.387 42.1827C210.659 41.1267 209.243 39.7827 208.139 38.1507C207.083 36.4707 206.555 34.6707 206.555 32.7507C206.555 30.4947 207.155 28.4787 208.355 26.7027C209.603 24.9267 211.235 23.5347 213.251 22.5267C215.315 21.5187 217.499 21.0147 219.803 21.0147C221.147 21.0147 222.875 21.3027 224.987 21.8787C225.947 22.1667 226.667 22.3587 227.147 22.4547C228.779 22.8867 230.507 23.1027 232.331 23.1027C232.859 23.1027 233.651 23.0547 234.707 22.9587L236.291 22.8867ZM219.371 41.2467C221.051 41.2467 222.443 40.3587 223.547 38.5827C224.651 36.8067 225.203 34.5267 225.203 31.7427C225.203 29.4867 224.579 27.5427 223.331 25.9107C222.083 24.2787 220.619 23.4627 218.939 23.4627C217.355 23.4627 215.963 24.3027 214.763 25.9827C213.611 27.6627 213.035 29.6307 213.035 31.8867C213.035 34.4787 213.659 36.6867 214.907 38.5107C216.155 40.3347 217.643 41.2467 219.371 41.2467ZM229.595 59.6787C229.595 58.2387 228.827 57.1587 227.291 56.4387C225.755 55.7187 223.091 55.2147 219.299 54.9267L215.555 54.4947C213.731 55.6947 212.411 56.8947 211.595 58.0947C210.827 59.2947 210.443 60.6867 210.443 62.2707C210.443 64.2387 211.283 65.8707 212.963 67.1667C214.643 68.4627 216.731 69.1107 219.227 69.1107C222.251 69.1107 224.555 68.4627 226.139 67.1667C227.243 66.3027 228.083 65.1987 228.659 63.8547C229.283 62.5587 229.595 61.1667 229.595 59.6787ZM239.603 51.6147C238.643 51.6147 238.163 51.3267 238.163 50.7507C238.163 50.4627 238.283 50.2227 238.523 50.0307C238.763 49.8387 239.195 49.6467 239.819 49.4547C240.779 49.1667 241.499 48.8547 241.979 48.5187C242.507 48.1347 242.771 47.4867 242.771 46.5747V11.0787C242.771 9.63874 242.555 8.46274 242.123 7.55074C241.691 6.63874 240.899 6.08674 239.747 5.89474C239.315 5.79874 239.099 5.43874 239.099 4.81474C239.099 4.33474 239.291 4.02274 239.675 3.87874C240.875 3.59074 242.339 3.13474 244.067 2.51074C245.843 1.88674 247.403 1.31074 248.747 0.782742C249.035 0.68674 249.251 0.63874 249.395 0.63874C249.779 0.63874 249.971 0.85474 249.971 1.28674C249.971 1.52674 249.875 2.22274 249.683 3.37474C249.491 4.47874 249.395 6.47074 249.395 9.35074V23.3187C249.395 24.4227 249.539 25.2387 249.827 25.7667C251.507 24.4707 253.211 23.3907 254.939 22.5267C256.715 21.6147 258.611 21.1587 260.627 21.1587C263.075 21.1587 265.091 22.0947 266.675 23.9667C268.307 25.7907 269.123 28.1667 269.123 31.0947V46.4307C269.123 47.2947 269.363 47.9427 269.843 48.3747C270.371 48.8067 271.091 49.1667 272.003 49.4547C272.579 49.6467 272.987 49.8387 273.227 50.0307C273.467 50.2227 273.587 50.4627 273.587 50.7507C273.587 51.3267 273.083 51.6147 272.075 51.6147C270.731 51.6147 269.627 51.5427 268.763 51.3987C267.707 51.3027 266.747 51.2547 265.883 51.2547C265.019 51.2547 264.059 51.3027 263.003 51.3987C262.235 51.5427 261.155 51.6147 259.763 51.6147C258.755 51.6147 258.251 51.3267 258.251 50.7507C258.251 50.4147 258.371 50.1747 258.611 50.0307C258.851 49.8387 259.259 49.6467 259.835 49.4547C260.699 49.1667 261.371 48.8067 261.851 48.3747C262.331 47.9427 262.571 47.2707 262.571 46.3587V31.8147C262.571 30.1827 261.923 28.7667 260.627 27.5667C259.379 26.3187 258.035 25.6947 256.595 25.6947C255.635 25.6947 254.627 25.8387 253.571 26.1267C252.515 26.3667 251.651 26.7507 250.979 27.2787C250.355 27.7587 249.923 28.2867 249.683 28.8627C249.491 29.4387 249.395 30.3267 249.395 31.5267V46.5747C249.443 47.4387 249.683 48.0627 250.115 48.4467C250.547 48.8307 251.195 49.1667 252.059 49.4547C253.115 49.7907 253.643 50.2227 253.643 50.7507C253.643 51.3267 253.163 51.6147 252.203 51.6147C250.859 51.6147 249.755 51.5427 248.891 51.3987C247.739 51.3027 246.779 51.2547 246.011 51.2547C245.195 51.2547 244.211 51.3027 243.059 51.3987C242.051 51.5427 240.899 51.6147 239.603 51.6147ZM289.095 52.4067C286.455 52.4067 284.415 51.6627 282.975 50.1747C281.583 48.6867 280.887 46.5027 280.887 43.6227V26.9187C280.887 26.5347 280.719 26.2707 280.383 26.1267C280.047 25.9347 279.447 25.8387 278.583 25.8387H278.007C277.719 25.8387 277.479 25.6467 277.287 25.2627C277.095 24.8787 276.999 24.4707 276.999 24.0387C276.999 23.8947 277.047 23.7507 277.143 23.6067C277.287 23.4627 277.407 23.3667 277.503 23.3187C278.847 22.5507 280.239 21.5667 281.679 20.3667C283.119 19.1667 284.343 18.0387 285.351 16.9827C285.399 16.9347 285.567 16.7667 285.855 16.4787C286.143 16.1907 286.455 16.0467 286.791 16.0467C287.511 16.0467 287.847 16.4067 287.799 17.1267L287.367 20.6547V20.9427C287.367 21.3747 287.511 21.6867 287.799 21.8787C288.087 22.0227 288.519 22.0947 289.095 22.0947H297.447C297.591 22.0947 297.735 22.2627 297.879 22.5987C298.023 22.9347 298.095 23.2707 298.095 23.6067C298.095 24.1347 298.023 24.6387 297.879 25.1187C297.735 25.5987 297.567 25.8387 297.375 25.8387H290.391C289.191 25.8387 288.399 25.9587 288.015 26.1987C287.679 26.4387 287.511 26.9907 287.511 27.8547V41.8227C287.511 43.8387 287.919 45.3987 288.735 46.5027C289.551 47.5587 290.703 48.0867 292.191 48.0867C293.439 48.0867 294.423 47.9907 295.143 47.7987C295.911 47.6067 296.631 47.2947 297.303 46.8627L297.663 46.7187C298.047 46.7187 298.239 47.1027 298.239 47.8707C298.239 48.2067 297.759 48.7587 296.799 49.5267C295.887 50.2467 294.735 50.8947 293.343 51.4707C291.951 52.0947 290.535 52.4067 289.095 52.4067ZM329.333 51.6867C328.037 51.6867 327.389 51.3987 327.389 50.8227C327.389 50.4867 327.557 50.2227 327.893 50.0307C328.229 49.7907 328.781 49.5987 329.549 49.4547C331.469 49.1187 332.861 48.5427 333.725 47.7267C334.589 46.9107 335.021 45.7107 335.021 44.1267V15.6147C335.021 12.5907 334.925 10.5747 334.733 9.56674C334.541 8.55874 334.181 7.98274 333.653 7.83874C332.885 7.64674 331.397 7.55074 329.189 7.55074H326.381C325.085 7.55074 323.813 7.83874 322.565 8.41474C321.365 8.99074 320.477 9.75874 319.901 10.7187C318.557 12.7347 317.453 13.7427 316.589 13.7427C316.109 13.7427 315.869 13.4067 315.869 12.7347C315.869 12.3507 316.013 11.8227 316.301 11.1507C317.069 9.66274 317.621 8.34274 317.957 7.19074C318.293 5.99074 318.557 4.59874 318.749 3.01474C318.893 1.86274 319.373 1.28674 320.189 1.28674C320.429 1.28674 320.765 1.62274 321.197 2.29474C321.677 2.96674 321.989 3.42274 322.133 3.66274C322.469 4.09474 323.141 4.43074 324.149 4.67074C325.205 4.91074 326.237 5.03074 327.245 5.03074L353.237 4.95874C355.973 4.95874 358.013 4.62274 359.357 3.95074C359.933 3.56674 360.317 3.27874 360.509 3.08674C360.605 3.03874 360.821 2.89474 361.157 2.65474C361.541 2.36674 361.973 2.22274 362.453 2.22274C362.645 2.22274 362.789 2.39074 362.885 2.72674C362.981 3.01474 363.029 3.35074 363.029 3.73474C363.029 4.07074 362.957 4.67074 362.813 5.53474L362.309 7.69474C362.165 8.22274 362.045 8.75074 361.949 9.27874C361.853 9.75874 361.805 10.3107 361.805 10.9347V11.9427C361.805 12.5667 361.685 13.1427 361.445 13.6707C361.253 14.1507 360.989 14.3907 360.653 14.3907C360.269 14.3907 359.957 14.1747 359.717 13.7427C359.525 13.2627 359.285 12.4947 358.997 11.4387C358.709 10.1427 358.037 9.18274 356.981 8.55874C355.973 7.88674 354.389 7.55074 352.229 7.55074H346.181C345.125 7.55074 344.357 7.71874 343.877 8.05474C343.397 8.34274 343.061 9.03874 342.869 10.1427C342.725 11.2467 342.653 13.0707 342.653 15.6147V44.1267C342.653 45.6627 343.085 46.8387 343.949 47.6547C344.861 48.4227 346.277 49.0227 348.197 49.4547C348.917 49.5987 349.445 49.7907 349.781 50.0307C350.117 50.2227 350.285 50.4867 350.285 50.8227C350.285 51.3987 349.661 51.6867 348.413 51.6867C346.637 51.6867 344.981 51.6147 343.445 51.4707C341.525 51.3747 340.085 51.3267 339.125 51.3267C338.021 51.3267 336.461 51.3747 334.445 51.4707C332.861 51.6147 331.157 51.6867 329.333 51.6867ZM360.132 51.6147C359.172 51.6147 358.692 51.3267 358.692 50.7507C358.692 50.4147 358.812 50.1507 359.052 49.9587C359.34 49.7667 359.772 49.5987 360.348 49.4547C361.308 49.2627 362.004 48.9507 362.436 48.5187C362.868 48.0387 363.084 47.4387 363.084 46.7187V30.8787C363.084 29.5827 362.892 28.5507 362.508 27.7827C362.124 26.9667 361.428 26.4387 360.42 26.1987C360.228 26.1507 360.036 26.0307 359.844 25.8387C359.7 25.6467 359.628 25.4067 359.628 25.1187C359.628 24.6387 359.868 24.3027 360.348 24.1107C361.596 23.7747 362.964 23.2707 364.452 22.5987C365.988 21.9267 367.308 21.2787 368.412 20.6547C369.036 20.2707 369.468 20.0787 369.708 20.0787C370.044 20.0787 370.212 20.2707 370.212 20.6547L369.996 26.1987C369.996 26.3907 370.044 26.4867 370.14 26.4867C371.388 24.9027 372.756 23.6067 374.244 22.5987C375.78 21.5907 377.268 21.0867 378.708 21.0867C379.956 21.0867 380.916 21.3507 381.588 21.8787C382.26 22.3587 382.596 23.0067 382.596 23.8227C382.596 24.7347 382.236 25.6947 381.516 26.7027C380.844 27.7107 380.1 28.2147 379.284 28.2147C378.9 28.2147 378.132 27.9507 376.98 27.4227C376.788 27.3267 376.428 27.1827 375.9 26.9907C375.42 26.7507 374.988 26.6307 374.604 26.6307C373.212 26.6307 372.06 27.1107 371.148 28.0707C370.236 29.0307 369.78 30.6627 369.78 32.9667V46.5027C369.78 47.2227 370.068 47.7987 370.644 48.2307C371.22 48.6627 372.18 49.0947 373.524 49.5267C374.1 49.6707 374.508 49.8387 374.748 50.0307C375.036 50.2227 375.18 50.4627 375.18 50.7507C375.18 51.3267 374.724 51.6147 373.812 51.6147C372.42 51.6147 371.148 51.5427 369.996 51.3987C368.556 51.3027 367.452 51.2547 366.684 51.2547C365.916 51.2547 364.908 51.3027 363.66 51.3987C362.652 51.5427 361.476 51.6147 360.132 51.6147ZM391.618 52.4067C390.658 52.4067 389.674 52.0707 388.666 51.3987C387.706 50.7747 386.914 49.9827 386.29 49.0227C385.666 48.0147 385.354 47.0307 385.354 46.0707C385.354 44.5347 385.786 43.2867 386.65 42.3267C387.514 41.3667 388.906 40.4787 390.826 39.6627L397.81 36.7107C398.77 36.3267 399.346 35.9907 399.538 35.7027C399.73 35.4147 399.85 34.7667 399.898 33.7587L400.042 29.3667C400.09 28.0227 399.754 26.9427 399.034 26.1267C398.362 25.2627 397.402 24.8307 396.154 24.8307C395.482 24.8307 394.786 24.9507 394.066 25.1907C393.394 25.4307 392.842 25.7427 392.41 26.1267C392.026 26.5107 391.834 27.1347 391.834 27.9987L391.906 29.5827C391.906 29.9667 391.21 30.5187 389.818 31.2387C388.474 31.9107 387.394 32.2467 386.578 32.2467C386.29 32.2467 386.05 32.1507 385.858 31.9587C385.714 31.7667 385.642 31.5507 385.642 31.3107C385.642 29.7267 386.65 28.0707 388.666 26.3427C390.346 24.8547 392.266 23.6307 394.426 22.6707C396.586 21.6627 398.434 21.1587 399.97 21.1587C401.986 21.1587 403.618 21.8547 404.866 23.2467C406.114 24.5907 406.714 26.3427 406.666 28.5027L406.306 44.7747C406.258 45.8307 406.474 46.6947 406.954 47.3667C407.434 48.0387 408.034 48.3747 408.754 48.3747C409.906 48.3747 410.77 48.0867 411.346 47.5107C411.538 47.3187 411.706 47.2227 411.85 47.2227C412.09 47.2227 412.282 47.3187 412.426 47.5107C412.618 47.6547 412.714 47.8227 412.714 48.0147C412.714 48.5427 412.378 49.1427 411.706 49.8147C410.89 50.6307 410.002 51.2547 409.042 51.6867C408.13 52.1667 407.242 52.4067 406.378 52.4067C403.93 52.4067 402.01 51.1107 400.618 48.5187H400.402C398.818 49.9107 397.33 50.8947 395.938 51.4707C394.546 52.0947 393.106 52.4067 391.618 52.4067ZM395.362 48.5187C396.706 48.5187 397.882 48.0147 398.89 47.0067C399.37 46.5267 399.634 45.6627 399.682 44.4147L399.826 40.3107V39.9507C399.826 39.2787 399.61 38.9427 399.178 38.9427C398.89 38.9427 398.482 39.0627 397.954 39.3027C395.842 40.1187 394.33 40.9587 393.418 41.8227C392.554 42.6867 392.122 43.6707 392.122 44.7747C392.122 45.9747 392.434 46.9107 393.058 47.5827C393.73 48.2067 394.498 48.5187 395.362 48.5187ZM438.352 52.7667C438.256 52.7667 438.088 52.6467 437.848 52.4067C437.608 52.1667 437.488 51.9987 437.488 51.9027C437.488 51.6147 437.536 51.0867 437.632 50.3187C437.776 49.3587 437.848 48.4947 437.848 47.7267V47.2947C436.984 48.6867 435.712 49.8867 434.032 50.8947C432.352 51.9027 430.48 52.4067 428.416 52.4067C425.776 52.4067 423.424 51.7107 421.36 50.3187C419.344 48.9267 417.76 47.1027 416.608 44.8467C415.456 42.5427 414.88 40.1187 414.88 37.5747C414.88 34.5987 415.552 31.8627 416.896 29.3667C418.288 26.8707 420.232 24.8787 422.728 23.3907C425.272 21.9027 428.176 21.1587 431.44 21.1587C433.024 21.1587 434.656 21.4227 436.336 21.9507L437.272 22.1667C437.416 22.1667 437.536 22.0467 437.632 21.8067C437.728 21.5187 437.776 21.1347 437.776 20.6547V11.0787C437.776 9.30274 437.512 8.05474 436.984 7.33474C436.456 6.56674 435.592 6.06274 434.392 5.82274C434.2 5.77474 434.032 5.65474 433.888 5.46274C433.744 5.27074 433.672 5.05474 433.672 4.81474C433.672 4.33474 433.888 4.02274 434.32 3.87874C437.2 3.20674 440.08 2.27074 442.96 1.07074C443.536 0.830739 443.944 0.710739 444.184 0.710739C444.568 0.710739 444.76 0.902739 444.76 1.28674C444.76 1.43074 444.688 2.17474 444.544 3.51874C444.4 4.81474 444.328 6.75874 444.328 9.35074L444.184 43.2627C444.184 44.9427 444.304 46.1427 444.544 46.8627C444.784 47.5347 445.192 47.8707 445.768 47.8707L448.792 47.6547H449.152C449.44 47.6547 449.632 47.7027 449.728 47.7987C449.872 47.8947 449.944 48.0867 449.944 48.3747C449.944 48.7107 449.824 49.0467 449.584 49.3827C449.344 49.6707 449.104 49.8147 448.864 49.8147C445.936 50.1507 442.84 50.9907 439.576 52.3347C439 52.6227 438.592 52.7667 438.352 52.7667ZM431.368 48.2307C432.472 48.2307 433.6 47.9667 434.752 47.4387C435.904 46.8627 436.888 46.1187 437.704 45.2067V31.1667C437.704 30.0147 437.344 28.8867 436.624 27.7827C435.904 26.6787 434.92 25.7907 433.672 25.1187C432.472 24.3987 431.152 24.0387 429.712 24.0387C428.464 24.0387 427.216 24.4467 425.968 25.2627C424.768 26.0307 423.76 27.3027 422.944 29.0787C422.128 30.8547 421.72 33.1107 421.72 35.8467C421.72 38.8227 422.248 41.2467 423.304 43.1187C424.36 44.9427 425.632 46.2627 427.12 47.0787C428.608 47.8467 430.024 48.2307 431.368 48.2307ZM453.36 51.6147C452.448 51.6147 451.992 51.3267 451.992 50.7507C451.992 50.2227 452.496 49.8147 453.504 49.5267C454.704 49.1907 455.544 48.8547 456.024 48.5187C456.504 48.1347 456.744 47.5587 456.744 46.7907V31.2387C456.744 28.1667 455.664 26.4627 453.504 26.1267C453.024 26.0787 452.784 25.7187 452.784 25.0467C452.784 24.4707 453 24.1587 453.432 24.1107C456.552 23.4387 459.504 22.1667 462.288 20.2947C462.864 19.9587 463.248 19.7907 463.44 19.7907C463.824 19.7907 464.016 19.9827 464.016 20.3667C464.016 20.6547 463.92 21.7587 463.728 23.6787C463.44 26.5587 463.296 28.7907 463.296 30.3747V46.7907C463.296 47.5107 463.536 48.0867 464.016 48.5187C464.544 48.9027 465.384 49.2387 466.536 49.5267C467.544 49.8147 468.048 50.2227 468.048 50.7507C468.048 51.3267 467.616 51.6147 466.752 51.6147C465.504 51.6147 464.328 51.5427 463.224 51.3987C461.88 51.3027 460.8 51.2547 459.984 51.2547C459.168 51.2547 458.136 51.3027 456.888 51.3987C455.88 51.5427 454.704 51.6147 453.36 51.6147ZM459.84 14.8227C458.64 14.8227 457.608 14.4147 456.744 13.5987C455.928 12.7347 455.52 11.7027 455.52 10.5027C455.52 9.25474 455.928 8.22274 456.744 7.40674C457.608 6.54274 458.64 6.11074 459.84 6.11074C461.088 6.11074 462.144 6.54274 463.008 7.40674C463.872 8.22274 464.304 9.25474 464.304 10.5027C464.304 11.7027 463.872 12.7347 463.008 13.5987C462.144 14.4147 461.088 14.8227 459.84 14.8227ZM472.346 51.6147C471.914 51.6147 471.554 51.5427 471.266 51.3987C471.026 51.2547 470.906 51.0387 470.906 50.7507C470.906 50.4147 471.026 50.1507 471.266 49.9587C471.554 49.7667 471.986 49.5987 472.562 49.4547C473.522 49.2147 474.242 48.9267 474.722 48.5907C475.25 48.2067 475.514 47.5827 475.514 46.7187V30.8787C475.514 29.4867 475.346 28.4307 475.01 27.7107C474.674 26.9427 474.002 26.4147 472.994 26.1267C472.514 26.0307 472.274 25.6947 472.274 25.1187C472.274 24.4947 472.49 24.1587 472.922 24.1107C475.994 23.2947 478.778 22.0707 481.274 20.4387C481.658 20.1507 481.97 20.0067 482.21 20.0067C482.546 20.0067 482.714 20.2227 482.714 20.6547L482.57 22.0947C482.522 22.4307 482.474 22.8627 482.426 23.3907C482.378 23.9187 482.354 24.4707 482.354 25.0467C482.354 25.5747 482.402 25.8867 482.498 25.9827C484.178 24.3507 485.93 23.1507 487.754 22.3827C489.578 21.5667 491.594 21.1587 493.802 21.1587C496.202 21.1587 498.194 22.1187 499.778 24.0387C501.362 25.9107 502.154 28.3107 502.154 31.2387V46.7907C502.154 47.6547 502.394 48.2307 502.874 48.5187C503.354 48.8067 504.122 49.1187 505.178 49.4547C506.234 49.8387 506.762 50.2947 506.762 50.8227C506.762 51.3507 506.306 51.6147 505.394 51.6147C504.05 51.6147 502.898 51.5427 501.938 51.3987C500.69 51.3027 499.682 51.2547 498.914 51.2547C498.146 51.2547 497.138 51.3027 495.89 51.3987C494.978 51.5427 493.826 51.6147 492.434 51.6147C492.098 51.6147 491.786 51.5427 491.498 51.3987C491.21 51.3027 491.066 51.1107 491.066 50.8227C491.066 50.2947 491.594 49.8387 492.65 49.4547C493.706 49.1187 494.45 48.8067 494.882 48.5187C495.362 48.2307 495.602 47.6547 495.602 46.7907V31.8867C495.602 29.9187 495.074 28.3827 494.018 27.2787C492.962 26.1267 491.546 25.5267 489.77 25.4787C487.13 25.4787 484.778 26.3187 482.714 27.9987C482.33 28.3827 482.138 28.8867 482.138 29.5107V46.7907C482.138 47.6547 482.378 48.2547 482.858 48.5907C483.338 48.9267 484.058 49.2147 485.018 49.4547C486.074 49.7427 486.602 50.1747 486.602 50.7507C486.602 51.3267 486.146 51.6147 485.234 51.6147C483.938 51.6147 482.81 51.5427 481.85 51.3987C480.698 51.3027 479.714 51.2547 478.898 51.2547C478.13 51.2547 477.122 51.3027 475.874 51.3987C474.866 51.5427 473.69 51.6147 472.346 51.6147ZM540.603 22.8867C540.891 22.8867 541.131 23.0067 541.323 23.2467C541.515 23.4867 541.611 23.7987 541.611 24.1827C541.611 24.4227 541.539 24.7347 541.395 25.1187C541.251 25.4547 541.059 25.7427 540.819 25.9827C540.531 26.2707 540.291 26.4147 540.099 26.4147H538.155C536.907 26.4147 536.163 26.6067 535.923 26.9907C535.635 27.5667 535.491 28.6707 535.491 30.3027C535.491 32.7507 534.915 35.0307 533.763 37.1427C532.659 39.2067 531.147 40.8627 529.227 42.1107C527.355 43.3587 525.315 43.9827 523.107 43.9827C521.763 43.9827 520.371 43.7187 518.931 43.1907C518.211 43.5747 517.611 44.0307 517.131 44.5587C516.699 45.0387 516.483 45.4707 516.483 45.8547C516.483 46.7667 517.251 47.4867 518.787 48.0147C520.323 48.5427 522.771 48.9267 526.131 49.1667C530.835 49.4547 534.291 50.1987 536.499 51.3987C538.707 52.5987 539.811 54.3027 539.811 56.5107C539.811 59.0067 538.971 61.4787 537.291 63.9267C535.611 66.3747 533.427 68.3667 530.739 69.9027C528.099 71.4867 525.435 72.2787 522.747 72.2787C518.475 72.2787 515.091 71.5107 512.595 69.9747C510.147 68.4867 508.923 66.4227 508.923 63.7827C508.923 62.4387 509.115 61.3347 509.499 60.4707C509.883 59.6547 510.531 58.8627 511.443 58.0947L516.843 53.9187C514.779 53.3907 513.291 52.6707 512.379 51.7587C511.467 50.8467 511.011 49.6707 511.011 48.2307C511.011 47.2227 511.587 46.3107 512.739 45.4947C513.747 44.7267 514.587 44.0787 515.259 43.5507C515.931 43.0227 516.411 42.5667 516.699 42.1827C514.971 41.1267 513.555 39.7827 512.451 38.1507C511.395 36.4707 510.867 34.6707 510.867 32.7507C510.867 30.4947 511.467 28.4787 512.667 26.7027C513.915 24.9267 515.547 23.5347 517.563 22.5267C519.627 21.5187 521.811 21.0147 524.115 21.0147C525.459 21.0147 527.187 21.3027 529.299 21.8787C530.259 22.1667 530.979 22.3587 531.459 22.4547C533.091 22.8867 534.819 23.1027 536.643 23.1027C537.171 23.1027 537.963 23.0547 539.019 22.9587L540.603 22.8867ZM523.683 41.2467C525.363 41.2467 526.755 40.3587 527.859 38.5827C528.963 36.8067 529.515 34.5267 529.515 31.7427C529.515 29.4867 528.891 27.5427 527.643 25.9107C526.395 24.2787 524.931 23.4627 523.251 23.4627C521.667 23.4627 520.275 24.3027 519.075 25.9827C517.923 27.6627 517.347 29.6307 517.347 31.8867C517.347 34.4787 517.971 36.6867 519.219 38.5107C520.467 40.3347 521.955 41.2467 523.683 41.2467ZM533.907 59.6787C533.907 58.2387 533.139 57.1587 531.603 56.4387C530.067 55.7187 527.403 55.2147 523.611 54.9267L519.867 54.4947C518.043 55.6947 516.723 56.8947 515.907 58.0947C515.139 59.2947 514.755 60.6867 514.755 62.2707C514.755 64.2387 515.595 65.8707 517.275 67.1667C518.955 68.4627 521.043 69.1107 523.539 69.1107C526.563 69.1107 528.867 68.4627 530.451 67.1667C531.555 66.3027 532.395 65.1987 532.971 63.8547C533.595 62.5587 533.907 61.1667 533.907 59.6787Z" fill="white"/>
</svg>
